<?xml version="1.0" encoding="utf-8" standalone="no"?>
<!DOCTYPE svg PUBLIC "-//W3C//DTD SVG 1.1//EN"
  "http://www.w3.org/Graphics/SVG/1.1/DTD/svg11.dtd">
<!-- Created with matplotlib (https://matplotlib.org/) -->
<svg height="345.6pt" version="1.1" viewBox="0 0 460.8 345.6" width="460.8pt" xmlns="http://www.w3.org/2000/svg" xmlns:xlink="http://www.w3.org/1999/xlink">
 <defs>
  <style type="text/css">
*{stroke-linecap:butt;stroke-linejoin:round;}
  </style>
 </defs>
 <g id="figure_1">
  <g id="patch_1">
   <path d="M 0 345.6 
L 460.8 345.6 
L 460.8 0 
L 0 0 
z
" style="fill:#ffffff;"/>
  </g>
  <g id="axes_1">
   <g id="patch_2">
    <path d="M 36.88 317.72 
L 437.376433 317.72 
L 437.376433 13.32 
L 36.88 13.32 
z
" style="fill:#ffffff;"/>
   </g>
   <g id="matplotlib.axis_1">
    <g id="xtick_1">
     <g id="line2d_1">
      <defs>
       <path d="M 0 0 
L 0 3.5 
" id="maa799b7d9e" style="stroke:#000000;stroke-width:0.8;"/>
      </defs>
      <g>
       <use style="stroke:#000000;stroke-width:0.8;" x="54.856971" xlink:href="#maa799b7d9e" y="317.72"/>
      </g>
     </g>
     <g id="text_1">
      <!-- 2015-01 -->
      <defs>
       <path d="M 19.1875 8.296875 
L 53.609375 8.296875 
L 53.609375 0 
L 7.328125 0 
L 7.328125 8.296875 
Q 12.9375 14.109375 22.625 23.890625 
Q 32.328125 33.6875 34.8125 36.53125 
Q 39.546875 41.84375 41.421875 45.53125 
Q 43.3125 49.21875 43.3125 52.78125 
Q 43.3125 58.59375 39.234375 62.25 
Q 35.15625 65.921875 28.609375 65.921875 
Q 23.96875 65.921875 18.8125 64.3125 
Q 13.671875 62.703125 7.8125 59.421875 
L 7.8125 69.390625 
Q 13.765625 71.78125 18.9375 73 
Q 24.125 74.21875 28.421875 74.21875 
Q 39.75 74.21875 46.484375 68.546875 
Q 53.21875 62.890625 53.21875 53.421875 
Q 53.21875 48.921875 51.53125 44.890625 
Q 49.859375 40.875 45.40625 35.40625 
Q 44.1875 33.984375 37.640625 27.21875 
Q 31.109375 20.453125 19.1875 8.296875 
z
" id="DejaVuSans-50"/>
       <path d="M 31.78125 66.40625 
Q 24.171875 66.40625 20.328125 58.90625 
Q 16.5 51.421875 16.5 36.375 
Q 16.5 21.390625 20.328125 13.890625 
Q 24.171875 6.390625 31.78125 6.390625 
Q 39.453125 6.390625 43.28125 13.890625 
Q 47.125 21.390625 47.125 36.375 
Q 47.125 51.421875 43.28125 58.90625 
Q 39.453125 66.40625 31.78125 66.40625 
z
M 31.78125 74.21875 
Q 44.046875 74.21875 50.515625 64.515625 
Q 56.984375 54.828125 56.984375 36.375 
Q 56.984375 17.96875 50.515625 8.265625 
Q 44.046875 -1.421875 31.78125 -1.421875 
Q 19.53125 -1.421875 13.0625 8.265625 
Q 6.59375 17.96875 6.59375 36.375 
Q 6.59375 54.828125 13.0625 64.515625 
Q 19.53125 74.21875 31.78125 74.21875 
z
" id="DejaVuSans-48"/>
       <path d="M 12.40625 8.296875 
L 28.515625 8.296875 
L 28.515625 63.921875 
L 10.984375 60.40625 
L 10.984375 69.390625 
L 28.421875 72.90625 
L 38.28125 72.90625 
L 38.28125 8.296875 
L 54.390625 8.296875 
L 54.390625 0 
L 12.40625 0 
z
" id="DejaVuSans-49"/>
       <path d="M 10.796875 72.90625 
L 49.515625 72.90625 
L 49.515625 64.59375 
L 19.828125 64.59375 
L 19.828125 46.734375 
Q 21.96875 47.46875 24.109375 47.828125 
Q 26.265625 48.1875 28.421875 48.1875 
Q 40.625 48.1875 47.75 41.5 
Q 54.890625 34.8125 54.890625 23.390625 
Q 54.890625 11.625 47.5625 5.09375 
Q 40.234375 -1.421875 26.90625 -1.421875 
Q 22.3125 -1.421875 17.546875 -0.640625 
Q 12.796875 0.140625 7.71875 1.703125 
L 7.71875 11.625 
Q 12.109375 9.234375 16.796875 8.0625 
Q 21.484375 6.890625 26.703125 6.890625 
Q 35.15625 6.890625 40.078125 11.328125 
Q 45.015625 15.765625 45.015625 23.390625 
Q 45.015625 31 40.078125 35.4375 
Q 35.15625 39.890625 26.703125 39.890625 
Q 22.75 39.890625 18.8125 39.015625 
Q 14.890625 38.140625 10.796875 36.28125 
z
" id="DejaVuSans-53"/>
       <path d="M 4.890625 31.390625 
L 31.203125 31.390625 
L 31.203125 23.390625 
L 4.890625 23.390625 
z
" id="DejaVuSans-45"/>
      </defs>
      <g transform="translate(33.965564 332.318437)scale(0.1 -0.1)">
       <use xlink:href="#DejaVuSans-50"/>
       <use x="63.623047" xlink:href="#DejaVuSans-48"/>
       <use x="127.246094" xlink:href="#DejaVuSans-49"/>
       <use x="190.869141" xlink:href="#DejaVuSans-53"/>
       <use x="254.492188" xlink:href="#DejaVuSans-45"/>
       <use x="290.576172" xlink:href="#DejaVuSans-48"/>
       <use x="354.199219" xlink:href="#DejaVuSans-49"/>
      </g>
     </g>
    </g>
    <g id="xtick_2">
     <g id="line2d_2">
      <g>
       <use style="stroke:#000000;stroke-width:0.8;" x="96.018662" xlink:href="#maa799b7d9e" y="317.72"/>
      </g>
     </g>
     <g id="text_2">
      <!-- 2015-07 -->
      <defs>
       <path d="M 8.203125 72.90625 
L 55.078125 72.90625 
L 55.078125 68.703125 
L 28.609375 0 
L 18.3125 0 
L 43.21875 64.59375 
L 8.203125 64.59375 
z
" id="DejaVuSans-55"/>
      </defs>
      <g transform="translate(75.127256 332.318437)scale(0.1 -0.1)">
       <use xlink:href="#DejaVuSans-50"/>
       <use x="63.623047" xlink:href="#DejaVuSans-48"/>
       <use x="127.246094" xlink:href="#DejaVuSans-49"/>
       <use x="190.869141" xlink:href="#DejaVuSans-53"/>
       <use x="254.492188" xlink:href="#DejaVuSans-45"/>
       <use x="290.576172" xlink:href="#DejaVuSans-48"/>
       <use x="354.199219" xlink:href="#DejaVuSans-55"/>
      </g>
     </g>
    </g>
    <g id="xtick_3">
     <g id="line2d_3">
      <g>
       <use style="stroke:#000000;stroke-width:0.8;" x="137.862591" xlink:href="#maa799b7d9e" y="317.72"/>
      </g>
     </g>
     <g id="text_3">
      <!-- 2016-01 -->
      <defs>
       <path d="M 33.015625 40.375 
Q 26.375 40.375 22.484375 35.828125 
Q 18.609375 31.296875 18.609375 23.390625 
Q 18.609375 15.53125 22.484375 10.953125 
Q 26.375 6.390625 33.015625 6.390625 
Q 39.65625 6.390625 43.53125 10.953125 
Q 47.40625 15.53125 47.40625 23.390625 
Q 47.40625 31.296875 43.53125 35.828125 
Q 39.65625 40.375 33.015625 40.375 
z
M 52.59375 71.296875 
L 52.59375 62.3125 
Q 48.875 64.0625 45.09375 64.984375 
Q 41.3125 65.921875 37.59375 65.921875 
Q 27.828125 65.921875 22.671875 59.328125 
Q 17.53125 52.734375 16.796875 39.40625 
Q 19.671875 43.65625 24.015625 45.921875 
Q 28.375 48.1875 33.59375 48.1875 
Q 44.578125 48.1875 50.953125 41.515625 
Q 57.328125 34.859375 57.328125 23.390625 
Q 57.328125 12.15625 50.6875 5.359375 
Q 44.046875 -1.421875 33.015625 -1.421875 
Q 20.359375 -1.421875 13.671875 8.265625 
Q 6.984375 17.96875 6.984375 36.375 
Q 6.984375 53.65625 15.1875 63.9375 
Q 23.390625 74.21875 37.203125 74.21875 
Q 40.921875 74.21875 44.703125 73.484375 
Q 48.484375 72.75 52.59375 71.296875 
z
" id="DejaVuSans-54"/>
      </defs>
      <g transform="translate(116.971185 332.318437)scale(0.1 -0.1)">
       <use xlink:href="#DejaVuSans-50"/>
       <use x="63.623047" xlink:href="#DejaVuSans-48"/>
       <use x="127.246094" xlink:href="#DejaVuSans-49"/>
       <use x="190.869141" xlink:href="#DejaVuSans-54"/>
       <use x="254.492188" xlink:href="#DejaVuSans-45"/>
       <use x="290.576172" xlink:href="#DejaVuSans-48"/>
       <use x="354.199219" xlink:href="#DejaVuSans-49"/>
      </g>
     </g>
    </g>
    <g id="xtick_4">
     <g id="line2d_4">
      <g>
       <use style="stroke:#000000;stroke-width:0.8;" x="179.251695" xlink:href="#maa799b7d9e" y="317.72"/>
      </g>
     </g>
     <g id="text_4">
      <!-- 2016-07 -->
      <g transform="translate(158.360289 332.318437)scale(0.1 -0.1)">
       <use xlink:href="#DejaVuSans-50"/>
       <use x="63.623047" xlink:href="#DejaVuSans-48"/>
       <use x="127.246094" xlink:href="#DejaVuSans-49"/>
       <use x="190.869141" xlink:href="#DejaVuSans-54"/>
       <use x="254.492188" xlink:href="#DejaVuSans-45"/>
       <use x="290.576172" xlink:href="#DejaVuSans-48"/>
       <use x="354.199219" xlink:href="#DejaVuSans-55"/>
      </g>
     </g>
    </g>
    <g id="xtick_5">
     <g id="line2d_5">
      <g>
       <use style="stroke:#000000;stroke-width:0.8;" x="221.095624" xlink:href="#maa799b7d9e" y="317.72"/>
      </g>
     </g>
     <g id="text_5">
      <!-- 2017-01 -->
      <g transform="translate(200.204218 332.318437)scale(0.1 -0.1)">
       <use xlink:href="#DejaVuSans-50"/>
       <use x="63.623047" xlink:href="#DejaVuSans-48"/>
       <use x="127.246094" xlink:href="#DejaVuSans-49"/>
       <use x="190.869141" xlink:href="#DejaVuSans-55"/>
       <use x="254.492188" xlink:href="#DejaVuSans-45"/>
       <use x="290.576172" xlink:href="#DejaVuSans-48"/>
       <use x="354.199219" xlink:href="#DejaVuSans-49"/>
      </g>
     </g>
    </g>
    <g id="xtick_6">
     <g id="line2d_6">
      <g>
       <use style="stroke:#000000;stroke-width:0.8;" x="262.257315" xlink:href="#maa799b7d9e" y="317.72"/>
      </g>
     </g>
     <g id="text_6">
      <!-- 2017-07 -->
      <g transform="translate(241.365909 332.318437)scale(0.1 -0.1)">
       <use xlink:href="#DejaVuSans-50"/>
       <use x="63.623047" xlink:href="#DejaVuSans-48"/>
       <use x="127.246094" xlink:href="#DejaVuSans-49"/>
       <use x="190.869141" xlink:href="#DejaVuSans-55"/>
       <use x="254.492188" xlink:href="#DejaVuSans-45"/>
       <use x="290.576172" xlink:href="#DejaVuSans-48"/>
       <use x="354.199219" xlink:href="#DejaVuSans-55"/>
      </g>
     </g>
    </g>
    <g id="xtick_7">
     <g id="line2d_7">
      <g>
       <use style="stroke:#000000;stroke-width:0.8;" x="304.101245" xlink:href="#maa799b7d9e" y="317.72"/>
      </g>
     </g>
     <g id="text_7">
      <!-- 2018-01 -->
      <defs>
       <path d="M 31.78125 34.625 
Q 24.75 34.625 20.71875 30.859375 
Q 16.703125 27.09375 16.703125 20.515625 
Q 16.703125 13.921875 20.71875 10.15625 
Q 24.75 6.390625 31.78125 6.390625 
Q 38.8125 6.390625 42.859375 10.171875 
Q 46.921875 13.96875 46.921875 20.515625 
Q 46.921875 27.09375 42.890625 30.859375 
Q 38.875 34.625 31.78125 34.625 
z
M 21.921875 38.8125 
Q 15.578125 40.375 12.03125 44.71875 
Q 8.5 49.078125 8.5 55.328125 
Q 8.5 64.0625 14.71875 69.140625 
Q 20.953125 74.21875 31.78125 74.21875 
Q 42.671875 74.21875 48.875 69.140625 
Q 55.078125 64.0625 55.078125 55.328125 
Q 55.078125 49.078125 51.53125 44.71875 
Q 48 40.375 41.703125 38.8125 
Q 48.828125 37.15625 52.796875 32.3125 
Q 56.78125 27.484375 56.78125 20.515625 
Q 56.78125 9.90625 50.3125 4.234375 
Q 43.84375 -1.421875 31.78125 -1.421875 
Q 19.734375 -1.421875 13.25 4.234375 
Q 6.78125 9.90625 6.78125 20.515625 
Q 6.78125 27.484375 10.78125 32.3125 
Q 14.796875 37.15625 21.921875 38.8125 
z
M 18.3125 54.390625 
Q 18.3125 48.734375 21.84375 45.5625 
Q 25.390625 42.390625 31.78125 42.390625 
Q 38.140625 42.390625 41.71875 45.5625 
Q 45.3125 48.734375 45.3125 54.390625 
Q 45.3125 60.0625 41.71875 63.234375 
Q 38.140625 66.40625 31.78125 66.40625 
Q 25.390625 66.40625 21.84375 63.234375 
Q 18.3125 60.0625 18.3125 54.390625 
z
" id="DejaVuSans-56"/>
      </defs>
      <g transform="translate(283.209838 332.318437)scale(0.1 -0.1)">
       <use xlink:href="#DejaVuSans-50"/>
       <use x="63.623047" xlink:href="#DejaVuSans-48"/>
       <use x="127.246094" xlink:href="#DejaVuSans-49"/>
       <use x="190.869141" xlink:href="#DejaVuSans-56"/>
       <use x="254.492188" xlink:href="#DejaVuSans-45"/>
       <use x="290.576172" xlink:href="#DejaVuSans-48"/>
       <use x="354.199219" xlink:href="#DejaVuSans-49"/>
      </g>
     </g>
    </g>
    <g id="xtick_8">
     <g id="line2d_8">
      <g>
       <use style="stroke:#000000;stroke-width:0.8;" x="345.262936" xlink:href="#maa799b7d9e" y="317.72"/>
      </g>
     </g>
     <g id="text_8">
      <!-- 2018-07 -->
      <g transform="translate(324.37153 332.318437)scale(0.1 -0.1)">
       <use xlink:href="#DejaVuSans-50"/>
       <use x="63.623047" xlink:href="#DejaVuSans-48"/>
       <use x="127.246094" xlink:href="#DejaVuSans-49"/>
       <use x="190.869141" xlink:href="#DejaVuSans-56"/>
       <use x="254.492188" xlink:href="#DejaVuSans-45"/>
       <use x="290.576172" xlink:href="#DejaVuSans-48"/>
       <use x="354.199219" xlink:href="#DejaVuSans-55"/>
      </g>
     </g>
    </g>
    <g id="xtick_9">
     <g id="line2d_9">
      <g>
       <use style="stroke:#000000;stroke-width:0.8;" x="387.106865" xlink:href="#maa799b7d9e" y="317.72"/>
      </g>
     </g>
     <g id="text_9">
      <!-- 2019-01 -->
      <defs>
       <path d="M 10.984375 1.515625 
L 10.984375 10.5 
Q 14.703125 8.734375 18.5 7.8125 
Q 22.3125 6.890625 25.984375 6.890625 
Q 35.75 6.890625 40.890625 13.453125 
Q 46.046875 20.015625 46.78125 33.40625 
Q 43.953125 29.203125 39.59375 26.953125 
Q 35.25 24.703125 29.984375 24.703125 
Q 19.046875 24.703125 12.671875 31.3125 
Q 6.296875 37.9375 6.296875 49.421875 
Q 6.296875 60.640625 12.9375 67.421875 
Q 19.578125 74.21875 30.609375 74.21875 
Q 43.265625 74.21875 49.921875 64.515625 
Q 56.59375 54.828125 56.59375 36.375 
Q 56.59375 19.140625 48.40625 8.859375 
Q 40.234375 -1.421875 26.421875 -1.421875 
Q 22.703125 -1.421875 18.890625 -0.6875 
Q 15.09375 0.046875 10.984375 1.515625 
z
M 30.609375 32.421875 
Q 37.25 32.421875 41.125 36.953125 
Q 45.015625 41.5 45.015625 49.421875 
Q 45.015625 57.28125 41.125 61.84375 
Q 37.25 66.40625 30.609375 66.40625 
Q 23.96875 66.40625 20.09375 61.84375 
Q 16.21875 57.28125 16.21875 49.421875 
Q 16.21875 41.5 20.09375 36.953125 
Q 23.96875 32.421875 30.609375 32.421875 
z
" id="DejaVuSans-57"/>
      </defs>
      <g transform="translate(366.215459 332.318437)scale(0.1 -0.1)">
       <use xlink:href="#DejaVuSans-50"/>
       <use x="63.623047" xlink:href="#DejaVuSans-48"/>
       <use x="127.246094" xlink:href="#DejaVuSans-49"/>
       <use x="190.869141" xlink:href="#DejaVuSans-57"/>
       <use x="254.492188" xlink:href="#DejaVuSans-45"/>
       <use x="290.576172" xlink:href="#DejaVuSans-48"/>
       <use x="354.199219" xlink:href="#DejaVuSans-49"/>
      </g>
     </g>
    </g>
    <g id="xtick_10">
     <g id="line2d_10">
      <g>
       <use style="stroke:#000000;stroke-width:0.8;" x="428.268556" xlink:href="#maa799b7d9e" y="317.72"/>
      </g>
     </g>
     <g id="text_10">
      <!-- 2019-07 -->
      <g transform="translate(407.37715 332.318437)scale(0.1 -0.1)">
       <use xlink:href="#DejaVuSans-50"/>
       <use x="63.623047" xlink:href="#DejaVuSans-48"/>
       <use x="127.246094" xlink:href="#DejaVuSans-49"/>
       <use x="190.869141" xlink:href="#DejaVuSans-57"/>
       <use x="254.492188" xlink:href="#DejaVuSans-45"/>
       <use x="290.576172" xlink:href="#DejaVuSans-48"/>
       <use x="354.199219" xlink:href="#DejaVuSans-55"/>
      </g>
     </g>
    </g>
   </g>
   <g id="matplotlib.axis_2">
    <g id="ytick_1">
     <g id="line2d_11">
      <defs>
       <path d="M 0 0 
L -3.5 0 
" id="m7fb6db4504" style="stroke:#000000;stroke-width:0.8;"/>
      </defs>
      <g>
       <use style="stroke:#000000;stroke-width:0.8;" x="36.88" xlink:href="#m7fb6db4504" y="285.022524"/>
      </g>
     </g>
     <g id="text_11">
      <!-- 100 -->
      <g transform="translate(10.7925 288.821743)scale(0.1 -0.1)">
       <use xlink:href="#DejaVuSans-49"/>
       <use x="63.623047" xlink:href="#DejaVuSans-48"/>
       <use x="127.246094" xlink:href="#DejaVuSans-48"/>
      </g>
     </g>
    </g>
    <g id="ytick_2">
     <g id="line2d_12">
      <g>
       <use style="stroke:#000000;stroke-width:0.8;" x="36.88" xlink:href="#m7fb6db4504" y="245.972602"/>
      </g>
     </g>
     <g id="text_12">
      <!-- 120 -->
      <g transform="translate(10.7925 249.771821)scale(0.1 -0.1)">
       <use xlink:href="#DejaVuSans-49"/>
       <use x="63.623047" xlink:href="#DejaVuSans-50"/>
       <use x="127.246094" xlink:href="#DejaVuSans-48"/>
      </g>
     </g>
    </g>
    <g id="ytick_3">
     <g id="line2d_13">
      <g>
       <use style="stroke:#000000;stroke-width:0.8;" x="36.88" xlink:href="#m7fb6db4504" y="206.92268"/>
      </g>
     </g>
     <g id="text_13">
      <!-- 140 -->
      <defs>
       <path d="M 37.796875 64.3125 
L 12.890625 25.390625 
L 37.796875 25.390625 
z
M 35.203125 72.90625 
L 47.609375 72.90625 
L 47.609375 25.390625 
L 58.015625 25.390625 
L 58.015625 17.1875 
L 47.609375 17.1875 
L 47.609375 0 
L 37.796875 0 
L 37.796875 17.1875 
L 4.890625 17.1875 
L 4.890625 26.703125 
z
" id="DejaVuSans-52"/>
      </defs>
      <g transform="translate(10.7925 210.721899)scale(0.1 -0.1)">
       <use xlink:href="#DejaVuSans-49"/>
       <use x="63.623047" xlink:href="#DejaVuSans-52"/>
       <use x="127.246094" xlink:href="#DejaVuSans-48"/>
      </g>
     </g>
    </g>
    <g id="ytick_4">
     <g id="line2d_14">
      <g>
       <use style="stroke:#000000;stroke-width:0.8;" x="36.88" xlink:href="#m7fb6db4504" y="167.872758"/>
      </g>
     </g>
     <g id="text_14">
      <!-- 160 -->
      <g transform="translate(10.7925 171.671977)scale(0.1 -0.1)">
       <use xlink:href="#DejaVuSans-49"/>
       <use x="63.623047" xlink:href="#DejaVuSans-54"/>
       <use x="127.246094" xlink:href="#DejaVuSans-48"/>
      </g>
     </g>
    </g>
    <g id="ytick_5">
     <g id="line2d_15">
      <g>
       <use style="stroke:#000000;stroke-width:0.8;" x="36.88" xlink:href="#m7fb6db4504" y="128.822836"/>
      </g>
     </g>
     <g id="text_15">
      <!-- 180 -->
      <g transform="translate(10.7925 132.622054)scale(0.1 -0.1)">
       <use xlink:href="#DejaVuSans-49"/>
       <use x="63.623047" xlink:href="#DejaVuSans-56"/>
       <use x="127.246094" xlink:href="#DejaVuSans-48"/>
      </g>
     </g>
    </g>
    <g id="ytick_6">
     <g id="line2d_16">
      <g>
       <use style="stroke:#000000;stroke-width:0.8;" x="36.88" xlink:href="#m7fb6db4504" y="89.772914"/>
      </g>
     </g>
     <g id="text_16">
      <!-- 200 -->
      <g transform="translate(10.7925 93.572132)scale(0.1 -0.1)">
       <use xlink:href="#DejaVuSans-50"/>
       <use x="63.623047" xlink:href="#DejaVuSans-48"/>
       <use x="127.246094" xlink:href="#DejaVuSans-48"/>
      </g>
     </g>
    </g>
    <g id="ytick_7">
     <g id="line2d_17">
      <g>
       <use style="stroke:#000000;stroke-width:0.8;" x="36.88" xlink:href="#m7fb6db4504" y="50.722992"/>
      </g>
     </g>
     <g id="text_17">
      <!-- 220 -->
      <g transform="translate(10.7925 54.52221)scale(0.1 -0.1)">
       <use xlink:href="#DejaVuSans-50"/>
       <use x="63.623047" xlink:href="#DejaVuSans-50"/>
       <use x="127.246094" xlink:href="#DejaVuSans-48"/>
      </g>
     </g>
    </g>
   </g>
   <g id="line2d_18">
    <path clip-path="url(#p767be0f979)" d="M 55.084383 266.805735 
L 55.766621 272.819423 
L 55.994034 272.799898 
L 56.221447 269.890679 
L 56.448859 261.807345 
L 56.676272 261.573046 
L 57.35851 266.961935 
L 57.585923 265.068014 
L 57.813335 265.888062 
L 58.040748 271.706501 
L 58.268161 273.327072 
L 59.405224 266.376186 
L 59.632637 260.811572 
L 59.860049 259.679125 
L 60.542287 259.444825 
L 60.7697 267.17671 
L 61.224525 248.120348 
L 61.451938 251.517691 
L 62.134176 248.647522 
L 62.361588 248.608472 
L 62.589001 246.8317 
L 62.816414 246.089752 
L 63.043826 248.061773 
L 63.726064 246.519301 
L 64.408302 233.359477 
L 64.635715 232.14893 
L 65.545366 230.684557 
L 65.772778 228.946836 
L 66.000191 229.47401 
L 66.909842 220.590153 
L 67.137254 222.210724 
L 67.364667 228.810161 
L 67.59208 225.627593 
L 67.819492 229.454485 
L 68.729143 227.697238 
L 68.956556 229.298285 
L 69.183968 233.457102 
L 70.093619 232.03178 
L 70.548444 241.599011 
L 70.775857 237.283994 
L 71.003269 238.963141 
L 71.685507 236.307746 
L 72.140333 229.43496 
L 72.367745 231.328881 
L 72.595158 234.452875 
L 73.277396 231.895105 
L 73.504809 232.910403 
L 73.732221 239.373165 
L 73.959634 237.694018 
L 74.187047 239.62699 
L 74.869285 233.535202 
L 75.096697 237.323044 
L 75.32411 237.674493 
L 75.551523 235.585323 
L 76.461173 231.621756 
L 76.688586 234.2381 
L 76.915999 235.038624 
L 77.370824 232.10988 
L 78.053062 232.598004 
L 78.280475 233.671876 
L 78.507887 232.734678 
L 78.7353 233.925701 
L 78.962712 236.698245 
L 79.64495 231.133632 
L 79.872363 232.480854 
L 80.327188 227.091965 
L 80.554601 225.900942 
L 81.236839 221.273526 
L 81.691664 229.103036 
L 81.919077 235.917247 
L 82.14649 228.497762 
L 82.828728 228.985886 
L 83.05614 234.648125 
L 83.283553 236.190596 
L 83.510966 235.702472 
L 83.738378 231.094582 
L 84.648029 234.51145 
L 84.875442 234.2381 
L 85.102854 228.497762 
L 85.330267 228.849211 
L 86.012505 226.076667 
L 86.239918 226.310966 
L 86.46733 226.330491 
L 86.922156 221.488301 
L 87.831806 227.189589 
L 88.059219 222.464549 
L 88.286631 222.972198 
L 88.514044 225.900942 
L 89.196282 225.393293 
L 89.423695 226.525741 
L 89.651107 226.213341 
L 90.105933 229.083511 
L 91.015583 231.485081 
L 91.242996 228.634437 
L 91.470409 229.20066 
L 91.697821 231.973205 
L 92.380059 232.461329 
L 92.607472 231.133632 
L 92.834885 231.71938 
L 93.062297 230.586933 
L 93.28971 233.086128 
L 93.971948 231.114107 
L 94.199361 232.246554 
L 94.426773 230.137859 
L 94.881599 232.793253 
L 95.563837 237.127795 
L 96.018662 233.086128 
L 96.246075 233.398527 
L 97.155725 234.257625 
L 97.383138 234.862899 
L 97.837963 245.835927 
L 98.065376 239.568415 
L 98.747614 234.921474 
L 98.975026 235.019099 
L 99.657264 227.189589 
L 100.339502 222.405974 
L 100.566915 224.983269 
L 100.794328 235.780572 
L 101.02174 235.897722 
L 101.931391 240.564188 
L 102.158804 239.373165 
L 102.386216 240.134639 
L 102.613629 241.345186 
L 103.52328 249.018496 
L 103.750692 256.437981 
L 103.978105 254.954084 
L 104.205518 255.481258 
L 104.43293 254.719784 
L 105.115168 246.519301 
L 105.342581 258.683352 
L 105.569994 255.266483 
L 105.797406 255.442208 
L 106.024819 253.860686 
L 106.707057 251.517691 
L 106.93447 252.806338 
L 107.161882 255.715557 
L 107.389295 260.323448 
L 107.616707 273.776146 
L 108.298945 278.930736 
L 108.526358 277.720189 
L 108.981183 259.796274 
L 109.208596 259.073851 
L 109.890834 260.108674 
L 110.118247 269.949254 
L 110.345659 260.928722 
L 110.800485 266.922885 
L 111.710135 260.987297 
L 111.937548 265.204689 
L 112.392373 257.277554 
L 113.074611 255.129809 
L 113.302024 253.235887 
L 113.529437 252.982063 
L 113.756849 257.843778 
L 113.984262 258.761451 
L 114.6665 255.325058 
L 114.893913 258.859076 
L 115.348738 255.735082 
L 115.576151 256.301306 
L 116.258389 260.733472 
L 116.485801 267.332909 
L 116.713214 264.911814 
L 116.940626 266.317611 
L 117.168039 264.755614 
L 117.850277 263.974616 
L 118.07769 262.939793 
L 118.305102 263.974616 
L 118.532515 266.473811 
L 118.759928 261.358271 
L 119.442166 262.373569 
L 119.669578 262.002595 
L 119.896991 265.087539 
L 120.124404 261.86592 
L 120.351816 263.466967 
L 121.034054 262.119745 
L 121.261467 258.136653 
L 121.48888 258.156178 
L 121.716292 254.758834 
L 121.943705 247.768898 
L 122.853356 256.613706 
L 123.080768 247.397924 
L 123.308181 244.937779 
L 123.535594 246.94885 
L 124.217832 243.668657 
L 124.445244 240.954687 
L 124.672657 242.06761 
L 124.90007 244.176306 
L 125.127482 243.902956 
L 125.80972 244.859679 
L 126.037133 252.279164 
L 126.491958 254.329285 
L 126.719371 260.928722 
L 127.401609 257.336129 
L 127.629021 258.292852 
L 127.856434 251.263866 
L 128.083847 248.354647 
L 128.311259 247.339349 
L 128.993497 250.365718 
L 129.22091 248.159398 
L 129.448323 249.819019 
L 129.903148 250.248568 
L 130.585386 249.291845 
L 131.267624 255.344583 
L 131.495037 247.866523 
L 132.177275 249.330895 
L 132.404687 249.42852 
L 132.6321 254.524535 
L 132.859513 253.450662 
L 133.086925 259.288625 
L 133.769163 260.655373 
L 133.996576 264.54084 
L 134.223989 262.881218 
L 134.678814 273.248973 
L 135.361052 270.710728 
L 135.588464 270.905977 
L 135.815877 268.211533 
L 136.04329 269.34398 
L 136.95294 271.706501 
L 137.180353 267.957708 
L 137.635178 274.752395 
L 138.544829 274.57667 
L 139.227067 291.953885 
L 140.136718 287.892693 
L 140.36413 285.100624 
L 140.591543 290.118539 
L 140.818956 285.959722 
L 141.046368 290.626188 
L 141.956019 291.543861 
L 142.183432 291.290036 
L 142.410844 292.24676 
L 142.638257 282.24998 
L 143.320495 286.115922 
L 143.547908 285.042049 
L 143.77532 297.869948 
L 144.002733 296.561776 
L 144.230146 290.216164 
L 144.912384 291.992935 
L 145.139796 295.800302 
L 145.367209 292.149135 
L 145.594621 291.661011 
L 145.822034 296.698451 
L 146.504272 294.76548 
L 146.731685 294.804529 
L 147.18651 297.323249 
L 147.413923 296.757026 
L 148.323573 291.582911 
L 148.550986 288.693217 
L 148.778399 292.324859 
L 149.005811 292.754409 
L 149.688049 291.114312 
L 149.915462 295.390278 
L 150.142875 292.637259 
L 150.370287 291.348611 
L 150.5977 291.055737 
L 151.279938 291.485286 
L 151.507351 283.987701 
L 151.734763 283.558152 
L 151.962176 282.09378 
L 152.189589 279.145511 
L 152.871827 281.371356 
L 153.099239 283.011453 
L 153.554065 282.738104 
L 153.781477 280.609883 
L 154.463715 280.102234 
L 154.91854 273.366122 
L 155.145953 273.698047 
L 155.373366 273.463747 
L 156.055604 273.483272 
L 156.283016 271.90175 
L 156.737842 273.951871 
L 157.647492 274.889069 
L 158.102318 266.356661 
L 158.32973 267.469584 
L 158.557143 265.517088 
L 159.239381 263.310767 
L 159.466794 265.868537 
L 159.694206 263.623167 
L 159.921619 268.348207 
L 160.83127 267.411009 
L 161.286095 261.514471 
L 161.513508 261.397321 
L 161.74092 265.790437 
L 162.650571 271.530776 
L 162.877984 271.101227 
L 163.105396 273.366122 
L 163.332809 273.932346 
L 164.015047 275.103844 
L 164.242459 276.529166 
L 164.469872 289.278966 
L 164.697285 295.116929 
L 164.924697 297.24515 
L 165.606935 297.440399 
L 165.834348 294.433555 
L 166.289173 298.221398 
L 166.516586 299.236696 
L 167.198824 299.100021 
L 167.426237 297.869948 
L 167.653649 299.64672 
L 167.881062 303.883636 
L 168.108475 303.532187 
L 168.790713 296.9718 
L 169.018125 297.733274 
L 169.245538 295.644103 
L 169.472951 296.347001 
L 169.700363 294.355455 
L 170.382601 291.992935 
L 171.064839 284.222001 
L 171.292252 284.33915 
L 172.201903 285.295873 
L 172.656728 289.474215 
L 173.566378 287.697444 
L 173.793791 286.916445 
L 174.021204 287.09217 
L 174.248616 285.705898 
L 174.476029 287.306944 
L 175.158267 290.216164 
L 175.38568 289.981864 
L 175.613092 290.606663 
L 175.840505 289.806139 
L 176.067918 294.140681 
L 176.750156 294.589755 
L 176.977568 293.008233 
L 177.204981 293.711132 
L 177.432394 292.637259 
L 177.659806 297.908998 
L 178.342044 300.564393 
L 178.79687 295.956502 
L 179.024282 293.613507 
L 179.251695 293.047283 
L 180.161346 294.804529 
L 180.843584 291.504811 
L 181.525822 290.919062 
L 181.753234 290.059964 
L 181.980647 291.133837 
L 182.20806 287.385044 
L 182.435472 287.404569 
L 183.11771 285.354448 
L 183.572535 285.100624 
L 184.937011 291.524336 
L 185.164424 279.262661 
L 185.391837 276.548691 
L 185.619249 276.802515 
L 186.301487 273.209923 
L 186.5289 276.275341 
L 186.756313 273.717572 
L 186.983725 273.561372 
L 187.211138 270.417853 
L 188.120789 267.821033 
L 188.348201 269.402555 
L 188.575614 269.53923 
L 188.803027 269.051106 
L 189.485265 266.512861 
L 189.94009 267.02051 
L 190.167503 267.293859 
L 190.394915 266.74716 
L 191.077153 268.406782 
L 191.304566 267.742933 
L 191.759391 270.242129 
L 191.986804 271.472201 
L 192.669042 271.706501 
L 192.896454 273.307547 
L 193.123867 273.112298 
L 193.35128 271.882225 
L 193.578692 269.929729 
L 194.488343 269.988304 
L 194.715756 268.699657 
L 195.170581 278.911211 
L 195.852819 274.400945 
L 196.080232 269.50018 
L 196.535057 254.62216 
L 196.76247 255.891282 
L 197.444708 258.507627 
L 197.899533 258.566202 
L 198.126946 256.477031 
L 198.354358 260.206299 
L 199.036596 259.874374 
L 199.264009 259.46435 
L 199.491422 257.785203 
L 199.718834 261.241121 
L 199.946247 259.54245 
L 200.628485 260.577273 
L 200.855898 259.640075 
L 201.08331 259.54245 
L 201.310723 257.902353 
L 201.538136 257.570429 
L 202.220373 253.684962 
L 202.447786 253.196838 
L 202.675199 251.166242 
L 202.902611 251.86914 
L 203.130024 250.600018 
L 204.039675 250.912417 
L 204.267087 251.595791 
L 204.4945 251.71294 
L 204.721913 252.611089 
L 205.404151 250.560968 
L 205.631563 249.38947 
L 205.858976 254.58311 
L 206.313801 258.234277 
L 206.996039 258.585727 
L 207.223452 262.588344 
L 207.450865 262.393094 
L 207.90569 267.762458 
L 208.815341 263.427917 
L 209.042753 263.779366 
L 209.270166 269.812579 
L 209.497579 268.562982 
L 210.179817 273.873771 
L 210.407229 271.140277 
L 210.634642 265.517088 
L 210.862055 265.595188 
L 211.089467 265.380413 
L 211.771705 262.119745 
L 211.999118 261.98307 
L 212.22653 263.095993 
L 212.681356 262.002595 
L 213.591006 262.646919 
L 214.045832 266.493336 
L 214.273244 265.692813 
L 214.955482 267.235285 
L 215.410308 263.486492 
L 215.63772 261.358271 
L 215.865133 257.785203 
L 216.547371 259.054326 
L 216.774784 255.364108 
L 217.002196 255.364108 
L 217.229609 254.134036 
L 217.457022 253.841161 
L 218.594085 251.71294 
L 218.821498 253.216362 
L 219.04891 252.767288 
L 219.958561 251.322441 
L 220.185974 252.298689 
L 220.413386 252.357264 
L 220.640799 254.134036 
L 221.550449 253.489712 
L 221.777862 253.743536 
L 222.005275 252.591564 
L 222.232687 250.053319 
L 222.914925 247.944623 
L 223.142338 247.710323 
L 223.369751 246.460726 
L 223.597163 247.436974 
L 223.824576 247.846998 
L 224.734227 245.972602 
L 224.961639 245.992127 
L 225.189052 246.402151 
L 225.416465 245.972602 
L 226.098703 245.816402 
L 226.326115 246.031177 
L 226.553528 242.301909 
L 227.008353 242.165235 
L 227.690591 242.790033 
L 227.918004 243.336732 
L 228.145417 228.888261 
L 228.372829 229.31781 
L 228.600242 228.243937 
L 229.28248 225.881417 
L 229.509893 223.460322 
L 229.964718 221.7226 
L 230.192131 222.308349 
L 230.874368 220.023929 
L 231.101781 216.64611 
L 231.329194 215.689387 
L 231.556606 216.001787 
L 231.784019 215.279363 
L 232.69367 213.365917 
L 232.921082 212.565394 
L 233.148495 213.697841 
L 233.375908 213.444017 
L 234.285558 212.799693 
L 234.512971 207.332704 
L 234.740384 208.953276 
L 234.967796 207.352229 
L 235.650034 208.211327 
L 235.877447 207.859878 
L 236.332272 209.499975 
L 236.559685 208.601827 
L 237.241923 208.484677 
L 237.469336 208.894701 
L 237.696748 206.024532 
L 237.924161 205.575458 
L 238.151574 206.942205 
L 238.833812 204.072036 
L 239.061224 207.235079 
L 239.288637 204.150135 
L 239.743462 205.673082 
L 240.4257 205.204483 
L 240.653113 199.503195 
L 240.880525 198.878396 
L 241.335351 199.776544 
L 242.017589 199.698444 
L 242.245001 197.609273 
L 242.472414 199.073646 
L 242.927239 200.401343 
L 243.609477 200.733267 
L 243.83689 203.740111 
L 244.064303 203.408187 
L 244.291715 204.872559 
L 245.201366 203.349612 
L 245.656191 205.594983 
L 245.883604 202.158589 
L 246.111017 202.490514 
L 246.793255 199.815594 
L 247.020667 198.077873 
L 247.24808 199.737494 
L 247.475493 199.52272 
L 247.702905 199.796069 
L 248.612556 192.259434 
L 249.067381 194.17288 
L 249.294794 189.428315 
L 250.204444 179.607259 
L 250.431857 181.032582 
L 250.65927 179.685359 
L 250.886682 175.487493 
L 251.56892 176.268491 
L 251.796333 176.717565 
L 252.023746 186.909595 
L 252.251158 182.438379 
L 252.478571 181.423081 
L 253.160809 179.607259 
L 253.388222 179.978234 
L 253.615634 180.876382 
L 253.843047 179.841559 
L 254.07046 180.349208 
L 254.98011 180.232058 
L 255.207523 182.00883 
L 255.434936 181.188781 
L 255.662348 176.756615 
L 256.344586 179.724409 
L 256.571999 178.709111 
L 256.799412 176.912815 
L 257.026824 177.654763 
L 257.254237 189.389265 
L 257.936475 196.340151 
L 258.163888 194.055731 
L 258.846126 202.490514 
L 259.528363 194.543855 
L 259.755776 197.140674 
L 259.983189 195.461528 
L 260.210601 195.930127 
L 260.438014 194.661004 
L 261.120252 195.559153 
L 261.347665 199.639869 
L 261.575077 195.539628 
L 261.80249 199.737494 
L 262.029903 199.073646 
L 262.712141 200.088944 
L 263.166966 198.936971 
L 263.394379 201.592366 
L 263.621791 198.761246 
L 264.304029 197.04305 
L 264.531442 196.125376 
L 264.758855 195.715352 
L 265.21368 189.272115 
L 265.895918 188.256817 
L 266.123331 187.241519 
L 266.350743 185.406173 
L 266.578156 186.73387 
L 266.805569 186.870545 
L 267.942632 180.642082 
L 268.170045 186.304321 
L 268.397457 188.373967 
L 269.079695 189.877389 
L 269.307108 187.300094 
L 269.53452 173.456897 
L 269.761933 176.522316 
L 270.671584 170.196228 
L 271.126409 165.803112 
L 271.353822 177.01044 
L 271.581234 172.793048 
L 272.263472 168.165632 
L 272.490885 164.748764 
L 272.718298 166.017887 
L 272.94571 172.051099 
L 273.173123 172.753998 
L 273.855361 173.320222 
L 274.082774 168.302307 
L 274.310186 167.911808 
L 274.537599 169.29808 
L 275.44725 165.002589 
L 275.674662 162.190994 
L 276.3569 159.965149 
L 277.266551 163.811566 
L 277.493964 164.14349 
L 277.721376 165.412613 
L 277.948789 170.547677 
L 278.631027 164.944014 
L 278.858439 166.193611 
L 279.313265 171.231051 
L 279.540677 168.107057 
L 280.222915 170.469578 
L 280.450328 170.352428 
L 281.132566 183.707501 
L 281.814804 186.323846 
L 282.042217 181.266881 
L 282.269629 179.13866 
L 282.497042 180.993532 
L 282.724455 179.353435 
L 283.406693 179.958709 
L 283.634105 178.650536 
L 283.861518 180.603032 
L 284.088931 176.873765 
L 284.316343 177.049489 
L 284.998581 175.995142 
L 285.225994 175.877992 
L 285.453407 174.608869 
L 285.680819 175.682742 
L 286.817883 166.955085 
L 287.045295 168.341357 
L 287.272708 175.721792 
L 287.50012 175.194618 
L 288.182358 175.350818 
L 288.409771 173.534997 
L 288.637184 174.882219 
L 288.864596 172.929723 
L 289.092009 161.917645 
L 289.774247 154.751984 
L 290.00166 150.222193 
L 290.229072 154.42006 
L 290.456485 152.038014 
L 290.683898 143.466557 
L 291.593548 138.956291 
L 291.820961 136.164221 
L 292.048374 136.86712 
L 292.275786 139.22964 
L 292.958024 140.596387 
L 293.41285 150.144093 
L 293.640262 146.200051 
L 293.867675 148.054922 
L 294.549913 148.386847 
L 295.004738 138.663416 
L 295.459564 138.643891 
L 296.141802 140.362088 
L 296.369214 142.353634 
L 296.596627 149.363095 
L 296.82404 144.735679 
L 297.051452 146.297676 
L 297.73369 148.738296 
L 297.961103 149.050695 
L 298.188515 150.280768 
L 298.415928 149.675494 
L 298.643341 149.577869 
L 299.325579 143.134632 
L 299.552991 145.028553 
L 299.780404 143.915631 
L 300.007817 144.013255 
L 300.235229 140.596387 
L 300.917467 135.812772 
L 301.14488 139.483464 
L 301.372293 139.854439 
L 301.599705 138.565791 
L 301.827118 138.565791 
L 302.736769 147.234874 
L 302.964181 147.176299 
L 303.191594 146.239101 
L 303.419007 149.851219 
L 304.328657 143.935156 
L 304.55607 143.99373 
L 304.783483 142.431734 
L 305.010895 138.585316 
L 305.693133 139.854439 
L 306.147959 139.971588 
L 306.375371 138.038617 
L 306.602784 134.504599 
L 307.512434 136.261846 
L 307.739847 130.580082 
L 307.96726 130.267683 
L 308.194672 131.82968 
L 308.87691 134.680324 
L 309.104323 134.602224 
L 309.559148 146.180526 
L 309.786561 145.399528 
L 310.696212 154.26386 
L 311.151037 152.682338 
L 311.37845 166.89651 
L 312.060688 174.726019 
L 312.2881 161.956695 
L 312.742926 177.342364 
L 312.970338 174.882219 
L 314.107402 153.482862 
L 314.334814 142.509833 
L 314.562227 143.603231 
L 315.471878 144.735679 
L 315.69929 146.258626 
L 315.926703 143.466557 
L 316.154115 137.609068 
L 316.836353 130.833907 
L 317.063766 131.966354 
L 317.291179 132.493528 
L 317.518591 138.585316 
L 317.746004 136.222796 
L 318.428242 135.031773 
L 318.655655 135.324648 
L 318.883067 138.526741 
L 319.11048 134.797474 
L 319.337893 128.861886 
L 320.020131 125.464542 
L 320.474956 131.86873 
L 320.702369 131.458705 
L 320.929781 132.688778 
L 321.612019 137.999567 
L 321.839432 138.116717 
L 322.52167 158.227427 
L 323.203908 142.939383 
L 323.431321 151.58894 
L 323.658733 155.220583 
L 323.886146 152.682338 
L 324.795797 154.830084 
L 325.023209 151.491315 
L 325.250622 145.204278 
L 325.478034 142.880808 
L 325.705447 151.51084 
L 326.387685 148.250172 
L 326.615098 142.002184 
L 326.84251 143.583706 
L 327.069923 140.264463 
L 327.297336 139.11249 
L 327.979574 136.984269 
L 328.206986 132.259229 
L 328.434399 133.040227 
L 328.889224 156.70448 
L 329.571462 157.641678 
L 329.798875 162.132419 
L 330.2537 159.633224 
L 330.481113 163.342967 
L 331.163351 157.602628 
L 331.390764 150.105043 
L 331.618176 135.519897 
L 331.845589 134.895099 
L 332.073002 121.344776 
L 332.75524 118.747956 
L 333.210065 114.452464 
L 333.437478 109.219775 
L 333.66489 112.050894 
L 334.347128 112.909992 
L 334.574541 116.248761 
L 334.801953 112.851418 
L 335.256779 116.502585 
L 335.939017 113.92529 
L 336.166429 114.842964 
L 336.393842 112.499968 
L 336.621255 112.909992 
L 336.848667 112.070419 
L 337.758318 113.398117 
L 337.985731 114.179115 
L 338.213143 115.409188 
L 338.440556 108.829276 
L 339.122794 105.724807 
L 339.350207 102.835113 
L 339.577619 101.52694 
L 339.805032 102.542238 
L 340.032445 105.978631 
L 340.714683 106.896304 
L 340.942095 104.846184 
L 341.169508 107.931127 
L 341.396921 107.735878 
L 341.624333 111.56277 
L 342.306571 111.75802 
L 342.533984 117.713133 
L 342.761397 116.131611 
L 343.216222 119.216555 
L 343.89846 124.585919 
L 344.125873 120.173278 
L 344.353285 120.700452 
L 344.580698 118.084107 
L 344.80811 118.845581 
L 345.490348 114.803914 
L 345.717761 121.169051 
L 346.172586 118.279357 
L 346.399999 113.261442 
L 347.082237 108.165427 
L 347.30965 108.614501 
L 347.537062 113.437166 
L 347.764475 107.286804 
L 347.991888 106.701055 
L 348.674126 107.521103 
L 348.901538 106.466755 
L 349.128951 108.516876 
L 349.356364 105.627182 
L 349.583776 106.48628 
L 350.266014 106.154356 
L 350.72084 99.886843 
L 350.948252 101.077866 
L 351.175665 107.384429 
L 351.857903 109.473599 
L 352.085316 108.731651 
L 352.540141 75.343967 
L 352.767554 74.17247 
L 353.449792 72.063774 
L 353.677204 75.890666 
L 353.904617 75.617317 
L 354.132029 72.434748 
L 354.359442 75.070618 
L 355.04168 72.454273 
L 355.496505 69.779354 
L 355.951331 55.448032 
L 356.860981 60.407372 
L 357.088394 60.387847 
L 357.315807 59.528749 
L 358.225457 54.745134 
L 358.45287 51.30874 
L 358.907695 40.901936 
L 359.135108 35.825446 
L 360.044759 34.400124 
L 360.272171 37.309343 
L 360.499584 44.670254 
L 360.726997 48.184747 
L 361.409235 53.98366 
L 361.636647 43.205882 
L 361.86406 48.633821 
L 362.091473 38.207492 
L 362.318885 43.225407 
L 363.001123 54.862283 
L 363.228536 54.159385 
L 363.455948 53.90556 
L 363.683361 50.664417 
L 363.910774 55.291832 
L 364.820424 46.447025 
L 365.047837 49.902943 
L 365.27525 41.058136 
L 365.502662 39.515664 
L 366.1849 36.54787 
L 366.639726 27.156364 
L 367.094551 42.346783 
L 367.776789 43.362081 
L 368.004202 37.309343 
L 368.231614 57.830077 
L 368.459027 61.559345 
L 368.68644 46.603225 
L 369.368678 55.877581 
L 369.59609 46.525125 
L 369.823503 48.399521 
L 370.050916 58.493926 
L 370.278328 52.070214 
L 370.960566 49.453869 
L 371.187979 45.392677 
L 371.415392 60.309747 
L 371.642804 51.113491 
L 371.870217 57.947227 
L 372.552455 65.874361 
L 372.779867 63.804715 
L 373.234693 46.38845 
L 373.462105 75.168243 
L 374.144343 86.668445 
L 374.371756 82.412003 
L 374.599169 70.345577 
L 374.826581 73.196222 
L 375.736232 101.155966 
L 375.963645 104.943808 
L 376.191057 115.545862 
L 376.41847 106.544855 
L 376.645883 102.405563 
L 377.328121 117.381209 
L 377.555533 134.719374 
L 377.782946 135.109873 
L 378.237771 143.876581 
L 378.920009 139.327265 
L 379.147422 140.069213 
L 379.374835 126.987489 
L 379.82966 131.59538 
L 379.82966 131.59538 
" style="fill:none;stroke:#1f77b4;stroke-linecap:square;stroke-width:1.5;"/>
   </g>
   <g id="line2d_19">
    <path clip-path="url(#p767be0f979)" d="M 380.511898 119.411805 
L 380.739311 135.285598 
L 381.194136 139.132015 
L 381.421549 151.296066 
L 382.103787 149.128795 
L 382.331199 151.022716 
L 382.558612 150.105043 
L 382.786024 146.492925 
L 383.013437 157.173079 
L 383.695675 160.179923 
L 383.923088 156.021106 
L 384.1505 166.135036 
L 384.377913 174.06217 
L 384.605326 185.972397 
L 385.287564 193.587131 
L 385.742389 173.398322 
L 385.969802 175.389868 
L 386.197214 175.233668 
L 386.879452 172.285399 
L 387.334278 171.93395 
L 387.56169 202.646713 
L 387.789103 190.795062 
L 388.471341 191.439386 
L 388.698754 185.933347 
L 388.926166 180.934957 
L 389.153579 179.978234 
L 389.380992 182.926503 
L 390.06323 187.397719 
L 390.290642 181.403556 
L 390.518055 177.752388 
L 390.745468 175.956092 
L 390.97288 174.081695 
L 391.882531 180.954482 
L 392.109943 179.743934 
L 392.337356 182.125979 
L 392.564769 172.246349 
L 393.247007 175.096993 
L 393.474419 178.260037 
L 393.701832 157.622153 
L 393.929245 155.298683 
L 394.156657 155.142483 
L 394.838895 145.907177 
L 395.066308 140.186363 
L 395.293721 140.069213 
L 395.521133 146.51245 
L 395.748546 147.547273 
L 396.430784 149.46072 
L 396.658197 146.610075 
L 396.885609 147.996347 
L 397.113022 146.7858 
L 397.340435 147.527748 
L 398.250085 146.531975 
L 398.477498 144.38423 
L 398.704911 146.278151 
L 398.932323 142.548883 
L 399.614561 140.088738 
L 399.841974 139.893489 
L 400.069387 138.839141 
L 400.296799 142.197434 
L 400.524212 138.643891 
L 401.20645 136.925695 
L 401.433862 137.550493 
L 401.661275 139.522514 
L 401.888688 143.466557 
L 402.1161 142.666033 
L 402.798338 130.970581 
L 403.025751 127.046064 
L 403.253164 125.484067 
L 403.480576 121.540025 
L 403.707989 116.87356 
L 404.390227 113.163817 
L 404.61764 116.073036 
L 404.845052 112.890468 
L 405.072465 99.35967 
L 405.299878 107.247754 
L 405.982116 111.75802 
L 406.209528 115.565387 
L 406.436941 112.285194 
L 406.664354 111.79707 
L 406.891766 109.3955 
L 407.574004 106.87678 
L 407.801417 101.44884 
L 408.02883 98.852021 
L 408.256242 98.188172 
L 408.483655 95.630402 
L 409.165893 89.577664 
L 409.393306 90.749162 
L 409.620718 88.562366 
L 409.848131 91.823035 
L 410.075544 91.979234 
L 410.757781 91.276336 
L 410.985194 91.237286 
L 411.212607 83.661601 
L 411.440019 82.236279 
L 412.34967 80.928106 
L 412.577083 75.168243 
L 412.804495 75.793042 
L 413.031908 79.463734 
L 413.259321 81.37718 
L 413.941559 80.771907 
L 414.168971 88.464741 
L 414.396384 69.232655 
L 414.623797 71.907574 
L 414.851209 66.831084 
L 415.533447 73.215747 
L 415.76086 84.188775 
L 415.988273 84.110675 
L 416.215685 88.367116 
L 416.443098 95.278953 
L 417.125336 117.654558 
L 417.352749 111.914219 
L 417.580161 107.501578 
L 417.807574 109.141675 
L 418.034987 111.250371 
L 418.717225 122.789623 
L 418.944637 115.936361 
L 419.17205 123.394897 
" style="fill:none;stroke:#ff7f0e;stroke-linecap:square;stroke-width:1.5;"/>
   </g>
   <g id="line2d_20">
    <path clip-path="url(#p767be0f979)" d="M 380.511898 132.485464 
L 380.739311 130.76839 
L 381.194136 130.10869 
L 381.421549 130.468288 
L 382.103787 132.71165 
L 382.331199 135.484013 
L 382.558612 138.484498 
L 382.786024 141.177492 
L 383.013437 143.00897 
L 383.695675 145.346507 
L 383.923088 148.001188 
L 384.1505 150.087215 
L 384.377913 152.760189 
L 384.605326 156.306477 
L 385.287564 161.247243 
L 385.742389 167.242701 
L 385.969802 170.989375 
L 386.197214 173.346724 
L 386.879452 174.622628 
L 387.334278 174.82501 
L 387.56169 174.36647 
L 387.789103 176.921583 
L 388.471341 179.550821 
L 388.698754 182.073461 
L 388.926166 183.669219 
L 389.153579 184.039334 
L 389.380992 183.573942 
L 390.06323 182.998704 
L 390.290642 182.900656 
L 390.518055 182.431748 
L 390.745468 181.42681 
L 390.97288 180.034476 
L 391.882531 178.367514 
L 392.109943 177.472808 
L 392.337356 176.964783 
L 392.564769 176.999759 
L 393.247007 176.261287 
L 393.474419 175.497491 
L 393.701832 175.129283 
L 393.929245 172.770146 
L 394.156657 169.329414 
L 394.838895 165.614648 
L 395.066308 161.126582 
L 395.293721 156.081959 
L 395.521133 151.268646 
L 395.748546 147.820793 
L 396.430784 145.615774 
L 396.658197 144.568768 
L 396.885609 143.969726 
L 397.113022 143.853296 
L 397.340435 143.878113 
L 398.250085 144.064377 
L 398.477498 144.205208 
L 398.704911 144.06974 
L 398.932323 144.008069 
L 399.614561 143.571695 
L 399.841974 142.713426 
L 400.069387 141.694247 
L 400.296799 140.576066 
L 400.524212 139.899563 
L 401.20645 139.138329 
L 401.433862 138.238857 
L 401.661275 137.433202 
L 401.888688 136.982319 
L 402.1161 137.210233 
L 402.798338 137.692637 
L 403.025751 136.975883 
L 403.253164 135.271293 
L 403.480576 133.026143 
L 403.707989 130.283931 
L 404.390227 127.058451 
L 404.61764 123.520922 
L 404.845052 120.53873 
L 405.072465 117.828932 
L 405.299878 114.077373 
L 405.982116 111.107187 
L 406.209528 109.363568 
L 406.436941 108.912267 
L 406.664354 108.855244 
L 406.891766 108.993602 
L 407.574004 108.956986 
L 407.801417 108.554159 
L 408.02883 107.391379 
L 408.256242 105.665128 
L 408.483655 103.749069 
L 409.165893 101.654074 
L 409.393306 99.026832 
L 409.620718 96.560799 
L 409.848131 94.205386 
L 410.075544 92.558712 
L 410.757781 91.49246 
L 410.985194 90.794834 
L 411.212607 90.383545 
L 411.440019 89.325308 
L 412.34967 87.909498 
L 412.577083 86.30793 
L 412.804495 84.139139 
L 413.031908 82.004788 
L 413.259321 80.538688 
L 413.941559 79.805698 
L 414.168971 79.489269 
L 414.396384 80.317954 
L 414.623797 79.471095 
L 414.851209 78.218669 
L 415.533447 76.274842 
L 415.76086 74.919631 
L 415.988273 75.241392 
L 416.215685 76.38448 
L 416.443098 78.349936 
L 417.125336 81.306387 
L 417.352749 86.961821 
L 417.580161 92.700853 
L 417.807574 97.4087 
L 418.034987 101.222467 
L 418.717225 104.327078 
L 418.944637 107.964114 
L 419.17205 110.662709 
" style="fill:none;stroke:#2ca02c;stroke-linecap:square;stroke-width:1.5;"/>
   </g>
   <g id="patch_3">
    <path d="M 36.88 317.72 
L 36.88 13.32 
" style="fill:none;stroke:#000000;stroke-linecap:square;stroke-linejoin:miter;stroke-width:0.8;"/>
   </g>
   <g id="patch_4">
    <path d="M 437.376433 317.72 
L 437.376433 13.32 
" style="fill:none;stroke:#000000;stroke-linecap:square;stroke-linejoin:miter;stroke-width:0.8;"/>
   </g>
   <g id="patch_5">
    <path d="M 36.88 317.72 
L 437.376433 317.72 
" style="fill:none;stroke:#000000;stroke-linecap:square;stroke-linejoin:miter;stroke-width:0.8;"/>
   </g>
   <g id="patch_6">
    <path d="M 36.88 13.32 
L 437.376433 13.32 
" style="fill:none;stroke:#000000;stroke-linecap:square;stroke-linejoin:miter;stroke-width:0.8;"/>
   </g>
  </g>
 </g>
 <defs>
  <clipPath id="p767be0f979">
   <rect height="304.4" width="400.496433" x="36.88" y="13.32"/>
  </clipPath>
 </defs>
</svg>
